<svg width="25" height="25" viewBox="0 0 25 25" fill="none" xmlns="http://www.w3.org/2000/svg">
<path d="M14.1304 17.9372C15.0309 17.9372 15.7609 17.2064 15.7609 16.3048C15.7609 15.4033 15.0309 14.6725 14.1304 14.6725H10.8696C9.9691 14.6725 9.23913 15.4033 9.23913 16.3048C9.23913 17.2064 9.9691 17.9372 10.8696 17.9372H14.1304Z" fill="white"/>
<path fill-rule="evenodd" clip-rule="evenodd" d="M15.6306 1.05966C14.5349 0.291717 13.1856 -0.0278296 11.9197 0.00188897C10.6538 0.0316066 9.31908 0.414221 8.25988 1.23903L2.40118 5.8097C1.66506 6.38308 1.08219 7.20116 0.685715 8.01021C0.289469 8.81877 0 9.77974 0 10.7112V18.7752C0 22.1964 2.77929 25 6.20652 25H18.7935C22.2182 25 25 22.199 25 18.7861V10.8636C25 9.87391 24.6804 8.86299 24.2402 8.01875C23.8004 7.17528 23.1558 6.33608 22.3472 5.77122L22.3453 5.7699L15.6306 1.05966ZM10.2622 3.81579C10.6704 3.49808 11.2921 3.28228 11.9961 3.26575C12.7 3.24923 13.3341 3.43554 13.7601 3.73385L20.4775 8.44599L20.4808 8.4483C20.7473 8.63432 21.0803 9.01332 21.3495 9.52951C21.6185 10.0456 21.7391 10.5365 21.7391 10.8636V18.7861C21.7391 20.4009 20.4122 21.7352 18.7935 21.7352H6.20652C4.59027 21.7352 3.26087 20.4034 3.26087 18.7752V10.7112C3.26087 10.413 3.36814 9.94833 3.6132 9.44827C3.85793 8.94887 4.16126 8.57511 4.40316 8.38674L10.2622 3.81579Z" fill="white"/>
</svg>
