<svg xmlns="http://www.w3.org/2000/svg" viewBox="0 0 517.18 566.93"><defs><style>.cls-1{fill:#f6921e;}.cls-2{fill:#ec1c24;}</style></defs><title>Asset 1</title><g id="Layer_2" data-name="Layer 2"><g id="Layer_1-2" data-name="Layer 1"><path class="cls-1" d="M228.07,410.77c14.42-20.79,21.55-44.38,21.55-70.9a118.62,118.62,0,0,0-10.2-48.7,130.87,130.87,0,0,0-27.28-39.77,134.67,134.67,0,0,0-39.66-26.65,115.61,115.61,0,0,0-46.9-9.94A119.31,119.31,0,0,0,76.49,225a132.56,132.56,0,0,0-39.65,27.28,124,124,0,0,0-26.64,39.9A125.79,125.79,0,0,0,0,339.87V529.45c0,10.71,3.57,19.63,11,26.78s15.94,10.7,25.89,10.7a36.83,36.83,0,0,0,26.53-10.7c7.26-7.15,11-16.07,11-26.78V466.08l90.39,90.4a38,38,0,0,0,52.38,0A34.63,34.63,0,0,0,225,544.11,40.15,40.15,0,0,0,225,516a34.71,34.71,0,0,0-7.92-12.39l-46.26-46.28C194.68,447,213.81,431.54,228.07,410.77Zm-36-2.86a95,95,0,0,1-133.45,0c-.34-.33-.68-.66-1-1a94.71,94.71,0,0,1-27.26-61.49c0-1.49-.07-3-.08-4.53,0-.23,0-.47,0-.7,0-1.9.09-3.89.19-5.8v-.76a94.92,94.92,0,0,1,27.18-60.17s0,0,.08-.08.26-.29.39-.42.21-.19.3-.29a1.8,1.8,0,0,1,.21-.19,94.68,94.68,0,0,1,66-27.36H126a94.72,94.72,0,0,1,66,27.36l0,0,.46.45h0c.17.16.33.33.48.49a95,95,0,0,1-.48,134ZM71.12,340.19c0,.26,0,.51,0,.75a13.77,13.77,0,1,1,0-1.56C71.11,339.63,71.12,339.92,71.12,340.19Zm135.66,0a13.63,13.63,0,0,1-27.24.75c0-.25,0-.49,0-.75s0-.56,0-.83v-.11a13.63,13.63,0,0,1,27.23.94ZM87.55,301.27c-.16.19-.37.41-.56.6s-.37.34-.53.52a13.77,13.77,0,1,1,1.09-1.12Zm95.37,96.51a13.62,13.62,0,0,1-19.78-18.72c.16-.17.32-.35.52-.54l.59-.57.09-.07a13.62,13.62,0,0,1,18.58,19.9Zm-44-125.42A13.6,13.6,0,0,1,126.13,286c-.25,0-.53,0-.81,0h-.74a13.63,13.63,0,1,1,14.36-13.61Zm0,135.67a13.63,13.63,0,1,1-14.36-13.63h.74c.28,0,.56,0,.83,0h.12A13.63,13.63,0,0,1,138.94,408Zm44-106.16a13.63,13.63,0,0,1-18.67.56l-.59-.56c-.2-.19-.36-.37-.52-.55a13.62,13.62,0,1,1,19.78.55ZM87,397.78A13.62,13.62,0,1,1,86.46,378c.16.18.35.34.53.52s.4.41.57.61l.09.07A13.64,13.64,0,0,1,87,397.78Zm78.94-57.59a40.61,40.61,0,0,1-81.16,2.24c0-.74,0-1.46,0-2.24s0-1.66.08-2.48v-.32a40.61,40.61,0,0,1,81.12,2.8Zm323.63,69.52a103.85,103.85,0,0,0-25.21-35q17.34-25.47,17.35-57.47a98.62,98.62,0,0,0-7.86-39,99.12,99.12,0,0,0-53.4-53.4,98.62,98.62,0,0,0-39-7.86A96.8,96.8,0,0,0,347,223.23C385.75,124.37,416.38,0,342.59,0,279,0,283.7,70,283.7,70l-2,246.22V527.07a34.84,34.84,0,0,0,8.41,23.06c2.42,2.93,11.76,13.26,20.86,13.26h79.16a104.89,104.89,0,0,0,42.55-8.66A110.3,110.3,0,0,0,490.38,497a105.17,105.17,0,0,0,8.67-42.56A106.88,106.88,0,0,0,489.56,409.71ZM354.84,317.28a26.86,26.86,0,0,1,7.6-19,24.88,24.88,0,0,1,19-8.14,25.72,25.72,0,0,1,19.24,8.14,26.45,26.45,0,0,1,7.86,19,26.86,26.86,0,0,1-27.1,27.11H354.84ZM416.1,479.37q-10.29,10.31-25.49,10.3H355.38V419.19h35.23q15.18,0,25.49,10.3a35.32,35.32,0,0,1,0,49.88Z"/><path class="cls-2" d="M399.55,328.3H373V301.2a29.31,29.31,0,0,1,.36-4.43,19.64,19.64,0,0,0-7.23,5,21.82,21.82,0,0,0-6.22,15.52v22h21.46A21,21,0,0,0,397.05,333a23.25,23.25,0,0,0,3.64-4.72A6.18,6.18,0,0,1,399.55,328.3Zm108.19,65.36c-6.37-14-14.73-25.6-25.24-35q17.37-25.53,17.37-57.49a100.62,100.62,0,0,0-71.29-96C485.43,129,529.29,36.86,466.5,17.27c-44.76-13.94-65.43,19.38-73.15,37.9.79,35-13.25,95.51-37.78,160A106,106,0,0,1,470.91,373.92a113.19,113.19,0,0,1,33.18,80.52A109.9,109.9,0,0,1,495,499.06a111.73,111.73,0,0,1-6.72,13.08,111.59,111.59,0,0,0,20.24-31.24,104.37,104.37,0,0,0,8.65-42.55A107.08,107.08,0,0,0,507.74,393.66Zm-99,79.94H373.52V424.26H360.43v60.35h30.18c8.8,0,16-2.93,21.88-8.79a20.42,20.42,0,0,0,2.36-2.72A33.49,33.49,0,0,1,408.77,473.6Z"/></g></g></svg>