<svg width="41" height="40" viewBox="0 0 41 40" fill="none" xmlns="http://www.w3.org/2000/svg">
<path d="M19.8379 11.6276C19.001 10.7908 17.6443 10.7908 16.8074 11.6276C15.9706 12.4644 15.9706 13.8212 16.8074 14.6581L22.1493 20L16.8074 25.3419C15.9706 26.1787 15.9706 27.5355 16.8074 28.3724C17.6443 29.2092 19.001 29.2092 19.8379 28.3724L26.695 21.5152C27.5319 20.6784 27.5319 19.3216 26.695 18.4848L19.8379 11.6276Z" fill="white" fill-opacity="0.5"/>
<path fill-rule="evenodd" clip-rule="evenodd" d="M20.894 0C9.84835 0 0.894043 8.9543 0.894043 20C0.894043 31.0457 9.84835 40 20.894 40C31.9397 40 40.894 31.0457 40.894 20C40.894 8.9543 31.9397 0 20.894 0ZM5.17976 20C5.17976 11.3212 12.2153 4.28571 20.894 4.28571C29.5728 4.28571 36.6083 11.3212 36.6083 20C36.6083 28.6788 29.5728 35.7143 20.894 35.7143C12.2153 35.7143 5.17976 28.6788 5.17976 20Z" fill="white" fill-opacity="0.5"/>
</svg>
