<svg width="41" height="40" viewBox="0 0 41 40" fill="none" xmlns="http://www.w3.org/2000/svg">
<path d="M12.5217 21.0562C11.6848 21.893 11.6848 23.2498 12.5217 24.0866C13.3585 24.9235 14.7153 24.9235 15.5521 24.0866L20.894 18.7447L26.2359 24.0866C27.0728 24.9235 28.4296 24.9235 29.2664 24.0866C30.1032 23.2498 30.1032 21.893 29.2664 21.0562L22.4093 14.199C21.5724 13.3622 20.2156 13.3622 19.3788 14.199L12.5217 21.0562Z" fill="white" fill-opacity="0.5"/>
<path fill-rule="evenodd" clip-rule="evenodd" d="M0.894042 20C0.894043 31.0457 9.84835 40 20.894 40C31.9397 40 40.894 31.0457 40.894 20C40.894 8.9543 31.9397 -5.50968e-07 20.894 -6.81453e-08C9.84835 4.14677e-07 0.894042 8.95431 0.894042 20ZM20.894 35.7143C12.2153 35.7143 5.17976 28.6788 5.17976 20C5.17976 11.3212 12.2153 4.28571 20.894 4.28571C29.5728 4.28571 36.6083 11.3212 36.6083 20C36.6083 28.6788 29.5728 35.7143 20.894 35.7143Z" fill="white" fill-opacity="0.5"/>
</svg>
