<svg xmlns="http://www.w3.org/2000/svg" viewBox="0 0 1187 768.14"><defs><style>.cls-1{fill:#2d3990;}.cls-2{fill:#f6921e;}.cls-3{fill:#ec1c24;}</style></defs><title>Asset 8</title><g id="Layer_2" data-name="Layer 2"><g id="Layer_1-2" data-name="Layer 1"><path class="cls-1" d="M81.84,768.14q-20.46,0-35.75-7.47a74.63,74.63,0,0,1-25.51-20,87.57,87.57,0,0,1-15.41-28A99.8,99.8,0,0,1,0,680.86a100.94,100.94,0,0,1,5.17-31.93A87.47,87.47,0,0,1,20.58,620.8a73.52,73.52,0,0,1,25.51-19.87q15.3-7.35,35.75-7.35,16.78,0,28.85,4.36a67.34,67.34,0,0,1,20.24,11.14A65.48,65.48,0,0,1,144,623.44a68.2,68.2,0,0,1,7.36,14.47h0a11.58,11.58,0,0,1-10.94,15.39h-2.92a11.62,11.62,0,0,1-11-7.55,46.21,46.21,0,0,0-2.07-4.85,41.12,41.12,0,0,0-7.82-10.46,42.36,42.36,0,0,0-13.56-8.72q-8.4-3.57-21-3.56-13.56,0-23.79,5.28a50.69,50.69,0,0,0-17.13,14.24,61.29,61.29,0,0,0-10.23,20.21,80.58,80.58,0,0,0-3.33,23,79.31,79.31,0,0,0,3.33,22.85,62.83,62.83,0,0,0,10.23,20.22,50.1,50.1,0,0,0,17.13,14.35q10.23,5.28,23.79,5.28,12.65,0,21-3.56a41.09,41.09,0,0,0,13.56-8.84,42.6,42.6,0,0,0,7.82-10.57,46.21,46.21,0,0,0,2.07-4.85,11.63,11.63,0,0,1,11-7.55h3a11.58,11.58,0,0,1,10.92,15.45l0,.06A72.19,72.19,0,0,1,144,738.17a64.15,64.15,0,0,1-13.1,14.47,67.34,67.34,0,0,1-20.24,11.14Q98.63,768.13,81.84,768.14Zm158-13.87V607.45a13.8,13.8,0,0,1,13.81-13.79h0a13.8,13.8,0,0,1,13.82,13.79V754.27a13.8,13.8,0,0,1-13.82,13.79h0A13.8,13.8,0,0,1,239.89,754.27Zm115.43.19V609.94a16.37,16.37,0,0,1,16.38-16.36h0a16.38,16.38,0,0,1,13.53,7.14l80.83,118.35V607.26a13.69,13.69,0,0,1,13.69-13.68H480a13.69,13.69,0,0,1,13.69,13.68V751.59a16.55,16.55,0,0,1-16.56,16.55h0A16.57,16.57,0,0,1,463.48,761L382.71,643.82V754.46A13.69,13.69,0,0,1,369,768.14h0A13.69,13.69,0,0,1,355.32,754.46Zm226.17,1.77V605.49a11.92,11.92,0,0,1,11.92-11.91h90.2a11.92,11.92,0,0,1,11.92,11.91v.24a11.92,11.92,0,0,1-11.92,11.91h-74.5v49.77h63.64a11.92,11.92,0,0,1,11.92,11.92h0a11.92,11.92,0,0,1-11.92,11.91H609.11v52.84h75.68A11.92,11.92,0,0,1,696.71,756v.24a11.92,11.92,0,0,1-11.92,11.91H593.41A11.92,11.92,0,0,1,581.49,756.23Zm203-1.65V616A22.43,22.43,0,0,1,807,593.58h0a22.44,22.44,0,0,1,20.25,12.76l41.36,86.55,42.1-86.8a22.2,22.2,0,0,1,20-12.51h0a22.19,22.19,0,0,1,22.21,22.19V754.58a13.57,13.57,0,0,1-13.57,13.56h0a13.57,13.57,0,0,1-13.58-13.56v-120l-38.5,78.57a20.61,20.61,0,0,1-18.51,11.54h0a20.61,20.61,0,0,1-18.52-11.58l-38.51-79V754.58a13.57,13.57,0,0,1-13.58,13.56h0A13.57,13.57,0,0,1,784.52,754.58Zm256.92-4.6,48.75-139.68a24.94,24.94,0,0,1,23.55-16.72h0a24.93,24.93,0,0,1,23.54,16.69L1186.22,750a13.67,13.67,0,0,1-12.91,18.18h0a13.67,13.67,0,0,1-12.93-9.23L1150.09,729H1077.6l-10.28,29.93a13.69,13.69,0,0,1-12.94,9.23h0A13.66,13.66,0,0,1,1041.44,750Zm44.43-45.53h56L1114,623.07Z"/><path class="cls-2" d="M498.69,275.58a113.6,113.6,0,0,0-23.49-34.41,108.72,108.72,0,0,0-34.71-23.23,110,110,0,0,0-84.67,0,108.56,108.56,0,0,0-34.7,23.23,112.89,112.89,0,0,0-23.49,34.41,102.42,102.42,0,0,0-8.75,42.07V522a35.78,35.78,0,0,0,10.38,26,34.45,34.45,0,0,0,25.68,10.65,37,37,0,0,0,26.79-10.65,34.89,34.89,0,0,0,10.91-26V458.07h71.57V522a35.34,35.34,0,0,0,10.65,26q10.67,10.65,26.5,10.65A36.38,36.38,0,0,0,508,522V318.75S508,292.85,498.69,275.58ZM434.21,384.3H362.64v-65A35.1,35.1,0,0,1,373,293.89a33.72,33.72,0,0,1,25.14-10.65,36.37,36.37,0,0,1,36,36.05ZM226.13,403.76c14.29-20.62,21.37-44,21.37-70.3a117.64,117.64,0,0,0-10.12-48.28,129.88,129.88,0,0,0-27-39.43A133.72,133.72,0,0,0,171,219.33a114.5,114.5,0,0,0-46.51-9.86,118.23,118.23,0,0,0-48.67,10.12,131.35,131.35,0,0,0-39.3,27A122.8,122.8,0,0,0,10.12,286.2,124.45,124.45,0,0,0,0,333.46v188C0,532,3.54,540.89,10.86,548s15.8,10.61,25.67,10.61A36.53,36.53,0,0,0,62.83,548C70,540.89,73.7,532,73.7,521.43V458.6l89.61,89.63a37.73,37.73,0,0,0,51.94,0A34.56,34.56,0,0,0,223.1,536a39.78,39.78,0,0,0,0-27.92,34.6,34.6,0,0,0-7.85-12.28l-45.87-45.89C193,439.65,212,424.36,226.13,403.76Zm-35.72-2.84a94.2,94.2,0,0,1-132.31,0c-.34-.32-.68-.65-1-1a94,94,0,0,1-27-61c0-1.48-.07-3-.08-4.5,0-.22,0-.45,0-.68,0-1.9.09-3.87.19-5.76v-.76a94.09,94.09,0,0,1,27-59.65.29.29,0,0,1,.08-.08c.12-.13.25-.28.39-.42l.3-.28a1.19,1.19,0,0,1,.2-.19,93.84,93.84,0,0,1,65.46-27.12c.23,0,.47,0,.7,0s.46,0,.69,0a93.86,93.86,0,0,1,65.46,27.12l0,0,.46.44v0l.47.48a94.22,94.22,0,0,1-.47,132.82C190.75,400.6,190.59,400.76,190.41,400.92ZM70.51,333.79c0,.25,0,.5,0,.74a13.56,13.56,0,1,1,0-1.55C70.5,333.23,70.51,333.52,70.51,333.79Zm134.5,0a13.51,13.51,0,0,1-27,.75c0-.25,0-.49,0-.75s0-.55,0-.82v-.11a13.51,13.51,0,0,1,27,.93ZM86.8,295.19c-.16.19-.36.41-.55.6s-.37.34-.53.51a13.65,13.65,0,1,1,1.08-1.11Zm94.56,95.69a13.51,13.51,0,0,1-19.61-18.56c.16-.17.32-.35.51-.54l.59-.56.08-.07a13.51,13.51,0,0,1,18.43,19.73Zm-43.6-124.35A13.49,13.49,0,0,1,125.06,280c-.26,0-.53,0-.81,0l-.73,0a13.51,13.51,0,1,1,14.24-13.49Zm0,134.51a13.51,13.51,0,1,1-14.24-13.51h.73c.28,0,.55,0,.82,0h.12A13.5,13.5,0,0,1,137.76,401Zm43.6-105.25a13.5,13.5,0,0,1-18.51.55c-.2-.17-.4-.36-.59-.55s-.35-.37-.51-.54a13.51,13.51,0,1,1,19.61.54ZM86.25,390.88a13.51,13.51,0,1,1-.53-19.61c.16.18.35.34.53.51s.39.41.57.61l.08.07A13.52,13.52,0,0,1,86.25,390.88Zm78.27-57.09A40.27,40.27,0,0,1,84.05,336c0-.73,0-1.44,0-2.21s0-1.65.08-2.46V331a40.26,40.26,0,0,1,80.43,2.79Zm591,72.43a102.92,102.92,0,0,0-25-34.67q17.19-25.24,17.2-57a97.84,97.84,0,0,0-7.79-38.7A98.38,98.38,0,0,0,687,222.93a97.91,97.91,0,0,0-38.7-7.79,96,96,0,0,0-34.09,6.18C652.57,123.3,682.94,0,609.77,0c-63,0-58.38,69.37-58.38,69.37l-2,244.12V522.57a34.52,34.52,0,0,0,8.34,22.87c2.39,2.9,11.66,13.15,20.68,13.15h78.48A104,104,0,0,0,699.05,550a109.33,109.33,0,0,0,57.25-57.25,104.15,104.15,0,0,0,8.61-42.2A105.89,105.89,0,0,0,755.49,406.22ZM621.92,314.58a26.69,26.69,0,0,1,7.53-18.82,24.67,24.67,0,0,1,18.81-8.06,25.51,25.51,0,0,1,19.08,8.06,26.28,26.28,0,0,1,7.79,18.82,26.62,26.62,0,0,1-26.87,26.87H621.92Zm60.74,160.71q-10.2,10.2-25.27,10.21H622.46V415.62h34.93q15,0,25.27,10.21a35,35,0,0,1,0,49.46Z"/><path class="cls-3" d="M897.57,246.2V521.93a35.39,35.39,0,0,1-10.67,26,34.8,34.8,0,0,1-25.44,10.66q-15.87,0-26.54-10.66a35.42,35.42,0,0,1-10.66-26V246.2a35.69,35.69,0,0,1,10.66-25.71q10.67-10.94,26.54-11,14.74,0,25.44,11A35.66,35.66,0,0,1,897.57,246.2Zm278.78-25.8q-10.65-10.93-26.5-10.93H975.56a34.81,34.81,0,0,0-25.94,10.93A36.2,36.2,0,0,0,939,246.62q0,15.86,10.67,26.24a35.79,35.79,0,0,0,25.94,10.38h50.8v238.2q0,15.84,10.39,26.5T1063,558.59q15.87,0,26.24-10.65t10.38-26.5V283.24h50.26q15.83,0,26.5-10.38T1187,246.62A36.3,36.3,0,0,0,1176.35,220.4ZM666.25,325.5H640V298.63a30.26,30.26,0,0,1,.35-4.4,19.64,19.64,0,0,0-7.16,5A21.59,21.59,0,0,0,627,314.58v21.84h21.27a20.88,20.88,0,0,0,15.53-6.31,23.22,23.22,0,0,0,3.61-4.68A6.13,6.13,0,0,1,666.25,325.5Zm107.27,64.8a102.83,102.83,0,0,0-25-34.67q17.22-25.31,17.23-57a99.61,99.61,0,0,0-29.07-70.4A99.21,99.21,0,0,0,705,207a95.59,95.59,0,0,0-9.93-3.61c56.36-75.51,99.85-166.87,37.6-186.3C688.25,3.3,667.76,36.34,660.1,54.7c.78,34.67-13.14,94.69-37.45,158.64a104.7,104.7,0,0,1,99.54,27.23,104.73,104.73,0,0,1,22.33,33.32,103.28,103.28,0,0,1,8.22,40.69A104.49,104.49,0,0,1,737,370.73a112.25,112.25,0,0,1,32.9,79.83,109.07,109.07,0,0,1-9,44.24,113.19,113.19,0,0,1-6.67,13,110.28,110.28,0,0,0,20.06-31,103.27,103.27,0,0,0,8.58-42.18A106.27,106.27,0,0,0,773.52,390.3Zm-98.13,79.26H640.44V420.64h-13v59.84h29.92c8.72,0,15.88-2.91,21.69-8.72a20.76,20.76,0,0,0,2.34-2.69A33.86,33.86,0,0,1,675.39,469.56Z"/></g></g></svg>