<svg width="32" height="33" viewBox="0 0 32 33" fill="none" xmlns="http://www.w3.org/2000/svg">
<path fill-rule="evenodd" clip-rule="evenodd" d="M10 12.3924C10 9.06449 12.6699 6.35626 16 6.35626C19.3129 6.35626 22 9.06249 22 12.3924V12.3981C21.9818 15.6455 19.4435 18.302 16.217 18.4127C16.1583 18.4147 16.0995 18.4115 16.0413 18.4031C16.0417 18.4032 16.0418 18.4032 16.0413 18.4031C16.0387 18.4029 16.0262 18.4018 16.0057 18.4018C15.9815 18.4018 15.9583 18.4033 15.9413 18.4055C15.8888 18.4121 15.8358 18.4145 15.783 18.4127C12.5616 18.3022 10 15.6494 10 12.3924ZM16 8.36576C13.7813 8.36576 12 10.1674 12 12.3924C12 14.544 13.6727 16.2954 15.7868 16.4016C15.9256 16.3897 16.0742 16.3887 16.217 16.4014C18.3233 16.2935 19.9865 14.5478 20 12.3895C19.9984 10.1678 18.2045 8.36576 16 8.36576Z" fill="#F6921E"/>
<path fill-rule="evenodd" clip-rule="evenodd" d="M16 32.4798C24.8366 32.4798 32 25.2823 32 16.4038C32 7.52523 24.8366 0.327759 16 0.327759C7.16344 0.327759 0 7.52523 0 16.4038C0 25.2823 7.16344 32.4798 16 32.4798ZM2 16.4038C2 8.63505 8.26801 2.33726 16 2.33726C23.732 2.33726 30 8.63505 30 16.4038C30 19.9526 28.6921 23.1944 26.5341 25.6692C26.0255 24.5395 25.136 23.5185 23.9423 22.6899L23.9401 22.6884C21.7214 21.157 18.8416 20.4228 16.0111 20.4228C13.1803 20.4228 10.2948 21.1571 8.06271 22.6865L8.05772 22.6899C6.86405 23.5185 5.97452 24.5395 5.46591 25.6692C3.30795 23.1944 2 19.9526 2 16.4038ZM16 30.4703C19.401 30.4703 22.5062 29.2062 24.92 27.0925C24.6806 26.1534 24.0093 25.1792 22.8066 24.344C20.9898 23.0905 18.5288 22.4323 16.0111 22.4323C13.4944 22.4323 11.025 23.09 9.19202 24.345C7.99016 25.1799 7.3193 26.1538 7.07996 27.0925C9.49384 29.2062 12.599 30.4703 16 30.4703Z" fill="#F6921E"/>
</svg>
