<svg width="40" height="41" viewBox="0 0 40 41" fill="none" xmlns="http://www.w3.org/2000/svg">
<path d="M21.0562 11.673C21.893 10.8362 23.2498 10.8362 24.0866 11.673C24.9235 12.5099 24.9235 13.8666 24.0866 14.7035L18.7447 20.0454L24.0866 25.3873C24.9235 26.2241 24.9235 27.5809 24.0866 28.4178C23.2498 29.2546 21.893 29.2546 21.0562 28.4178L14.199 21.5606C13.3622 20.7238 13.3622 19.367 14.199 18.5302L21.0562 11.673Z" fill="white" fill-opacity="0.5"/>
<path fill-rule="evenodd" clip-rule="evenodd" d="M20 0.0454102C31.0457 0.0454102 40 8.99971 40 20.0454C40 31.0911 31.0457 40.0454 20 40.0454C8.9543 40.0454 0 31.0911 0 20.0454C0 8.99971 8.9543 0.0454102 20 0.0454102ZM35.7143 20.0454C35.7143 11.3666 28.6788 4.33112 20 4.33112C11.3212 4.33112 4.28571 11.3666 4.28571 20.0454C4.28571 28.7242 11.3212 35.7597 20 35.7597C28.6788 35.7597 35.7143 28.7242 35.7143 20.0454Z" fill="white" fill-opacity="0.5"/>
</svg>
