<svg width="22" height="23" viewBox="0 0 22 23" fill="none" xmlns="http://www.w3.org/2000/svg">
<path d="M8.17583 9.0748C7.78475 8.68298 7.15159 8.68388 6.76162 9.07682C6.37165 9.46976 6.37255 10.1059 6.76362 10.4978L10.2936 14.0345C10.6839 14.4255 11.3155 14.4255 11.7058 14.0345L15.2358 10.4978C15.6269 10.1059 15.6278 9.46976 15.2378 9.07682C14.8479 8.68388 14.2147 8.68298 13.8236 9.0748L10.9997 11.9041L8.17583 9.0748Z" fill="#F6921E"/>
<path fill-rule="evenodd" clip-rule="evenodd" d="M11 0C4.92487 0 0 4.94827 0 11.0523C0 17.1563 4.92487 22.1046 11 22.1046C17.0751 22.1046 22 17.1563 22 11.0523C22 4.94827 17.0751 0 11 0ZM2 11.0523C2 6.05809 6.02944 2.0095 11 2.0095C15.9706 2.0095 20 6.05809 20 11.0523C20 16.0465 15.9706 20.095 11 20.095C6.02944 20.095 2 16.0465 2 11.0523Z" fill="#F6921E"/>
</svg>
